<svg xmlns="http://www.w3.org/2000/svg" viewBox="0 0 498.1 348.1"><title>Stacked Style</title><path d="M320.8,5c4.8,4.5,9.6,8.9,13.6,14.2s8.7,12,9.8,19.6c1.5,9.8-1,18.8-6,27.2a62.2,62.2,0,0,1-16.3,17.8c-.6.5-1.1,1-2,.3-8.2-6.4-15.4-13.8-19.5-23.6s-5.3-19.7-.7-29.6c3.9-8.3,9.7-15.3,16.4-21.6A32.5,32.5,0,0,0,320.5,5Z" transform="translate(-3.7 -5)" fill="#7da831"/><path d="M254.5,33.5l9.2,17.1c.4.7.1,1.2-.4,1.7a106.9,106.9,0,0,0-8.1,9.5c-.7.9-1.6.8-2.5.8a116.3,116.3,0,0,0-30.6,4q-64.1,18.1-88.5,80.2a117.8,117.8,0,0,0-7.4,35.1c-.2,3.2-.4,6.5-.3,9.7,0,1-.3,1.3-1.3,1.3-9.8,0-19.6,0-29.6-.3L115,181.9,96.6,167.8l9.8-3.4,10.1-3.5c1.6-.5,1.8-.9.6-2.2-4.4-4.5-8.7-9.1-13.1-13.6a3.4,3.4,0,0,1-1.2-1.7l22.5-4.1-12.9-18.6v-.6h7.7l13.2-.2c1.5,0,1.8-.3,1.1-1.7-2.8-5.7-5.5-11.4-8.3-17.2l-.9-2.1L141,101l5.6.8c1.4.3,1.4-.2,1-1.3-1.9-6.2-3.8-12.4-5.6-18.6-.2-.5-.7-1.2-.2-1.6s1.1,0,1.6.2l20.1,6-3-22.9,20.9,10.1V51l.6-.3,18.8,13L205,40.9l16.8,16,7.6-21.8,7.6,9.9,5.4,7.1c.8,1.1,1.2,1.1,1.8-.1,3.1-5.8,6.2-11.6,9.3-17.3C253.7,34.3,253.8,33.7,254.5,33.5Z" transform="translate(-3.7 -5)" fill="#f9b019"/><path d="M267.4,137.8a45.6,45.6,0,0,1-7.1,24.4,67.3,67.3,0,0,1-11.1,13.7c-.5.5-.9,1.2-1.9.6-9.1-5.4-17.1-12.1-22.3-21.5s-7.2-18.2-4.2-28.2c2-6.5,5.4-12.3,9.3-17.9,2.4-3.5,5.1-6.7,7.9-9.9.5-.6.9-1.1,1.9-.4,8.1,5.8,15.6,12.2,21.5,20.4A31.5,31.5,0,0,1,267.4,137.8Z" transform="translate(-3.7 -5)" fill="#7da831"/><path d="M306.2,90.4c-.5,11.2-4.4,19.9-10.5,27.7A69,69,0,0,1,283.5,130c-.6.5-1,1-2,.3-8.2-6.3-15.2-13.6-19.4-23.2s-5.5-19.6-1-29.6c3.6-8.1,9.2-14.7,15.4-20.9l4.9-4.7c.6-.5.9-.7,1.6-.1,7.4,7,14.5,14.3,19.3,23.4C305.3,80.7,306.5,85.6,306.2,90.4Z" transform="translate(-3.7 -5)" fill="#7da831"/><path d="M195.6,156.6c5.9.1,12.3.5,18.4,2.9,10,3.9,16.2,11.6,20.3,21.1s4.9,17.7,4.4,27c0,.9-.3,1.3-1.1,1.5-11.8,2.7-23.5,3-35-1.6s-17.8-11.9-21.2-23a101.3,101.3,0,0,1-4-25.1c-.1-1,.3-1.3,1.2-1.4A127.8,127.8,0,0,1,195.6,156.6Z" transform="translate(-3.7 -5)" fill="#7da831"/><path d="M262.6,211.6c-6.1.1-12-1.3-18-2-1.2-.1-1.1-.7-1-1.6,2.5-15.4,9.1-28.3,22.5-37.3,9.9-6.7,20.8-8.1,32.3-7.2a69.5,69.5,0,0,1,13.2,2.4c1.2.3,1.6.7,1.4,2-1.8,10.7-4.9,20.9-12.2,29.4a30.6,30.6,0,0,1-11.8,8.7A73.5,73.5,0,0,1,262.6,211.6Z" transform="translate(-3.7 -5)" fill="#7da831"/><path d="M314.6,161.3c-2.8-.6-5.6-1.4-8.4-1.8-7.5-1.1-15-1.6-22.5-.2-1.3.2-1.4-.2-1.2-1.3a62.9,62.9,0,0,1,11-26.3A38.6,38.6,0,0,1,312.4,117a60.8,60.8,0,0,1,24.7-3.1,61.6,61.6,0,0,1,14.4,2.3c.9.3,1.4.6,1.3,1.7-1.2,7.5-3,14.9-6.4,21.7a30.5,30.5,0,0,1-11,12.3c-6.1,3.9-12.2,7.6-19.5,9Z" transform="translate(-3.7 -5)" fill="#7da831"/><path d="M372.3,64.6A64.7,64.7,0,0,1,390.9,67c.8.3,1.5.5,1.3,1.7-1.4,9.2-3.5,18.1-8.7,25.9a24.9,24.9,0,0,1-6.3,6.6c-6.5,4.6-13.2,8.6-21.1,10.4a9.5,9.5,0,0,1-4.2-.1c-9.6-2.1-19.2-3.3-28.9-1.3-1.1.2-1-.5-.9-1.1a41.2,41.2,0,0,1,2.3-9.4c3-8.8,7.4-16.7,14-23.3s14-9.7,22.7-10.9A72.9,72.9,0,0,1,372.3,64.6Z" transform="translate(-3.7 -5)" fill="#7da831"/><path d="M383.6,139.3l22.7,4.1-15.8,16.8,21.7,7.7-16.5,12.5c-1.9,1.4-1.9,1.4.3,2.6l17.5,9.4c-.2.6-.7.4-1,.4H384.5c-1.5,0-1.8-.5-1.8-1.9a129.8,129.8,0,0,0-10.3-50.7,99.6,99.6,0,0,0-7.2-14.2c-1.1-1.8-.7-2.4,1.1-2.8a8,8,0,0,0,2.7-1.1c3.3-2.4,7-2.4,10.8-2.2s10.4.3,15.6.4h1.4Z" transform="translate(-3.7 -5)" fill="#f9b019"/><path d="M55.7,276.3A32.6,32.6,0,0,1,37,281.6c-9.5,0-17.1-3-23.3-9.2a34.2,34.2,0,0,1-10-24A35.3,35.3,0,0,1,12.8,225c6.1-6.5,14.4-10,24-10,18.9,0,33.3,14.4,33.3,33.3a33.3,33.3,0,0,1-8,22.1l10.5,11.6-8.1,4.6Zm-.1-12.7a23.4,23.4,0,0,0,5-14.9c0-13.8-10.5-24.8-23.7-24.8s-23.8,10.9-23.8,24.4,10.5,24.5,23.7,24.5a23.7,23.7,0,0,0,12.4-3.4l-7.4-8.6,7.4-4.6Z" transform="translate(-3.7 -5)" fill="#2b3027"/><path d="M112.4,274.1c-4.5,5-8.6,7.1-14.3,7.1s-10-2-12.9-5-4-7.2-4-14.4V233.2l8.7-1.3v29.9c0,4.2.7,6.3,2.5,8a10.4,10.4,0,0,0,7.2,2.7,13.4,13.4,0,0,0,9.8-4.3c2.4-2.7,3-5.1,3-11.3V233.2l8.7-1.3v47.5l-8.7,1.3Z" transform="translate(-3.7 -5)" fill="#2b3027"/><path d="M176.7,274c-6.6,4.8-13,7.2-20,7.2s-12.8-2.2-17.8-7a23.9,23.9,0,0,1-7.9-17.9,25.1,25.1,0,0,1,39.3-20.7,22.3,22.3,0,0,1,7.4,8.6l-34.6,20.3c3.2,5.3,7.5,7.8,13.5,7.8s11.1-2.4,18-7.8Zm-11.9-31.4a12.7,12.7,0,0,0-8.7-3.2c-8.4,0-15.8,7.5-15.8,15.9a13.4,13.4,0,0,0,.1,1.8Z" transform="translate(-3.7 -5)" fill="#2b3027"/><path d="M228.7,274c-6.6,4.8-13,7.2-20,7.2s-12.8-2.2-17.8-7a23.9,23.9,0,0,1-7.9-17.9,25.1,25.1,0,0,1,39.3-20.7,22.3,22.3,0,0,1,7.4,8.6l-34.6,20.3c3.2,5.3,7.5,7.8,13.5,7.8s11.1-2.4,18-7.8Zm-11.9-31.4a12.7,12.7,0,0,0-8.7-3.2c-8.4,0-15.8,7.5-15.8,15.9a13.4,13.4,0,0,0,.1,1.8Z" transform="translate(-3.7 -5)" fill="#2b3027"/><path d="M238.4,233.2l8.7-1.3v6.6c4.1-5.1,8.2-7.2,14.3-7.2s10,1.8,13.1,5.4,4,6.9,4,14.1v28.7l-8.7,1.3v-30c0-5.1-.3-6.4-1.9-8.3s-4.4-3-7.8-3a12.8,12.8,0,0,0-9.9,4.1c-2.3,2.5-3.1,5.3-3.1,9.9v26l-8.7,1.3Z" transform="translate(-3.7 -5)" fill="#2b3027"/><path d="M294.1,267.7c3,3.2,6,4.7,9.7,4.7s8-2.5,8-6.1a5.7,5.7,0,0,0-2.9-4.9c-1.4-.9-1.4-.9-6.6-2.1-9.3-2.2-13.7-6.7-13.7-14s6.8-14.2,15.7-14.2a19.6,19.6,0,0,1,15,6.3l-5.5,6.3c-2.9-2.9-5.8-4.4-9.2-4.4s-6.9,2.4-6.9,5.8a5.2,5.2,0,0,0,3.3,5c1.6.8,1.6.8,6.9,2,8.2,1.9,12.9,7.1,12.9,14.3,0,8.8-6.8,14.8-16.9,14.8-7,0-11.7-2.4-16.2-8.2Z" transform="translate(-3.7 -5)" fill="#2b3027"/><path d="M330.6,215.4l8.7-1.2v65.3l-8.7,1.2Z" transform="translate(-3.7 -5)" fill="#2b3027"/><path d="M380.5,275.2c-3.2,4.4-6.7,6.1-12.5,6.1-10.7,0-18.4-7.2-18.4-17.4s7.9-17.8,18.5-17.8c5.2,0,8.9,1.3,12.4,4.7v-1.9c0-4.7-.7-6.7-2.9-7.9s-4.8-1.6-8.3-1.6a38.4,38.4,0,0,0-14.2,3l2-9.4a67.1,67.1,0,0,1,14.5-1.8c5.8,0,10.4,1.7,13.6,5s3.9,6.3,3.9,12.6v30.5l-8.6,1.3Zm-11-2.7c6.6,0,11.3-3.7,11.3-9s-4.9-8.9-11.3-8.9-10.9,3.7-10.9,8.8S362.7,272.5,369.4,272.5Z" transform="translate(-3.7 -5)" fill="#2b3027"/><path d="M402.4,233.2l8.7-1.3v6.6c4.1-5.1,8.2-7.2,14.3-7.2s10,1.8,13.1,5.4,4,6.9,4,14.1v28.7l-8.7,1.3v-30c0-5.1-.3-6.4-1.9-8.3s-4.4-3-7.8-3a12.8,12.8,0,0,0-9.9,4.1c-2.3,2.5-3.1,5.3-3.1,9.9v26l-8.7,1.3Z" transform="translate(-3.7 -5)" fill="#2b3027"/><path d="M493,273c-4.7,5.7-9.7,8.3-16.4,8.3-13.5,0-24.3-11-24.3-24.9s10.8-25.2,24.2-25.2a24.3,24.3,0,0,1,16.5,6.4V215.4l8.7-1.2v65.2l-8.7,1.3Zm-15.5-.6a16.2,16.2,0,0,0,16.1-16.3,16.4,16.4,0,0,0-16.3-16.7c-9,0-16,7.1-16,16.4S468.2,272.4,477.6,272.4Z" transform="translate(-3.7 -5)" fill="#2b3027"/><path d="M29.7,291.8l38.8,45.9V294.1l5.1-1.2v58.6L35.1,306.1v44.1l-5.4,1.2Z" transform="translate(-3.7 -5)" fill="#2b3027"/><path d="M110.9,346.2c-3.2,4.1-6.6,5.8-11.7,5.8a14.5,14.5,0,0,1-14.9-14.9,14.8,14.8,0,0,1,15-15c4.8,0,8.8,1.8,11.4,5.2v-1.8c.1-.8.1-2.3.1-2.8,0-3.8-.3-5.2-1.8-6.7s-4.4-2.8-7.7-2.8-6,.6-11.7,2.8l-1.4.4,2-5.6a29.1,29.1,0,0,1,11.4-2.2c4.6,0,8.3,1.3,10.8,3.5s3.3,4.6,3.3,12.6v25.5l-4.7,1Zm-11.1,1.2c6.4,0,11.3-4.5,11.3-10.1a10.7,10.7,0,0,0-11-10.7c-6.3,0-10.8,4.4-10.8,10.5S93.7,347.4,99.9,347.4Z" transform="translate(-3.7 -5)" fill="#2b3027"/><path d="M144.8,350.9a25.8,25.8,0,0,1-4.9.4c-4.1,0-7.2-1.3-9.4-4s-2.4-4.6-2.4-9.2v-24h-5.8l1.4-4.6h4.5v-9.7l4.7-2.9v12.6h12v4.6h-12v24c0,5.8,2.5,8.3,8.1,8.3l3.9-.3Z" transform="translate(-3.7 -5)" fill="#2b3027"/><path d="M153,296.4l3.8-4.7,3.7,4.7-3.7,4.6Zm1.4,13.7,4.7-1.1v41.3l-4.7,1.2Z" transform="translate(-3.7 -5)" fill="#2b3027"/><path d="M165.5,309.6l5.2-1.2,15.5,33.3,15.8-33.3,5.2,1.2-21,43.5Z" transform="translate(-3.7 -5)" fill="#2b3027"/><path d="M229.9,347.1c5.1,0,9.6-2.1,15.6-7.1v6.3c-5.2,3.9-10.3,5.8-15.8,5.8-11.6,0-21.2-9.8-21.2-21.8s9.2-21.8,21.2-21.8a18.4,18.4,0,0,1,16.9,9.8l-31.4,19.4A15.7,15.7,0,0,0,229.9,347.1Zm9.7-30.1a13.6,13.6,0,0,0-10-3.7,16,16,0,0,0-11.6,4.9,17.8,17.8,0,0,0-4.6,11.5c0,.6.2,1.8.3,3.3Z" transform="translate(-3.7 -5)" fill="#2b3027"/><path d="M277.2,338.7c4.1,5.8,7.7,7.9,13.7,7.9s12.5-4.4,12.5-10.6a10.7,10.7,0,0,0-3.1-7.5c-1.4-1.3-3.9-2.5-7.3-3.4l-5.2-1.5c-8.9-2.5-13.7-7.7-13.7-15.2,0-9.1,7.7-16.2,17.6-16.2,6.3,0,11,2.1,15.7,7l-4,4.2c-3.8-4-7.2-5.7-11.8-5.7-6.8,0-11.8,4.3-11.8,10.2s2.9,8.2,9.8,10.1l5,1.4c5.9,1.6,9.4,3.8,11.8,7.3a15.6,15.6,0,0,1,2.8,8.8,16.9,16.9,0,0,1-6.4,12.9,18.7,18.7,0,0,1-11.9,3.8c-7.7,0-13.1-2.9-18.1-9.9Z" transform="translate(-3.7 -5)" fill="#2b3027"/><path d="M337.7,347.1c5.1,0,9.6-2.1,15.6-7.1v6.3c-5.2,3.9-10.3,5.8-15.8,5.8-11.6,0-21.2-9.8-21.2-21.8s9.2-21.8,21.2-21.8a18.4,18.4,0,0,1,16.9,9.8L323,337.6A15.7,15.7,0,0,0,337.7,347.1Zm9.7-30.1a13.6,13.6,0,0,0-10-3.7,16,16,0,0,0-11.6,4.9,17.8,17.8,0,0,0-4.6,11.5c0,.6.2,1.8.3,3.3Z" transform="translate(-3.7 -5)" fill="#2b3027"/><path d="M381.1,347.1c5.1,0,9.6-2.1,15.6-7.1v6.3c-5.2,3.9-10.3,5.8-15.8,5.8-11.6,0-21.2-9.8-21.2-21.8s9.2-21.8,21.2-21.8a18.4,18.4,0,0,1,16.9,9.8l-31.4,19.4A15.7,15.7,0,0,0,381.1,347.1Zm9.7-30.1a13.6,13.6,0,0,0-10-3.7,16,16,0,0,0-11.6,4.9,17.8,17.8,0,0,0-4.6,11.5c0,.6.2,1.8.3,3.3Z" transform="translate(-3.7 -5)" fill="#2b3027"/><path d="M440,343.2a23.5,23.5,0,0,1-5.2,5.3,20.5,20.5,0,0,1-11.3,3.4c-11.1,0-20.5-9.8-20.5-21.5s9.3-22.1,21.2-22.1c6.4,0,11.1,2.4,15.8,8.4V293.1l4.7-.7v57.9l-4.7,1.2Zm-15.6,4c8.9,0,16-7.4,16-16.9s-6.6-17-15.9-17-16.3,7.3-16.3,17.1S415.2,347.2,424.4,347.2Z" transform="translate(-3.7 -5)" fill="#2b3027"/><path d="M457.7,341.9a13,13,0,0,0,10.8,5.2c5.3,0,9.2-3.1,9.2-7.4a7.4,7.4,0,0,0-2.1-5c-.9-1-2.7-1.7-5.7-2.4l-4.2-.9c-6.8-1.5-10.7-5.5-10.7-11.2s6.2-12.1,14.2-12.1a18.8,18.8,0,0,1,13,4.9l-2.9,3.7c-4-2.8-6.6-3.7-10.2-3.7-5.2,0-8.9,2.9-8.9,7.1s2.3,5.7,7.5,6.6l3.4.6c7.4,1.4,11.8,6,11.8,12.1S476.7,352,468.3,352a17.7,17.7,0,0,1-14.3-6.5Z" transform="translate(-3.7 -5)" fill="#2b3027"/></svg>